<svg width="48" height="48" viewBox="0 0 48 48" fill="none" xmlns="http://www.w3.org/2000/svg">
<circle cx="24" cy="24" r="23.5" stroke="#212121"/>
<path d="M24.4424 14.8345C25.474 14.8362 25.9968 14.8416 26.4485 14.8551L26.6265 14.8609C26.832 14.8682 27.0348 14.8774 27.2792 14.8888C28.2547 14.9339 28.9201 15.0882 29.5044 15.3151C30.1086 15.5481 30.6189 15.8628 31.1284 16.3723C31.6372 16.8818 31.9519 17.3936 32.1857 17.9963C32.4117 18.5799 32.5661 19.246 32.6119 20.2215C32.6228 20.466 32.6316 20.6687 32.6389 20.8743L32.6447 21.0522C32.658 21.5039 32.6642 22.0267 32.6661 23.0584L32.6668 23.7419C32.6669 23.8254 32.6669 23.9116 32.6669 24.0005L32.6668 24.2591L32.6663 24.9427C32.6646 25.9743 32.6591 26.4971 32.6457 26.9488L32.6398 27.1267C32.6326 27.3322 32.6234 27.535 32.6119 27.7795C32.5668 28.7549 32.4117 29.4203 32.1857 30.0047C31.9527 30.6089 31.6372 31.1192 31.1284 31.6286C30.6189 32.1374 30.1063 32.4522 29.5044 32.6859C28.9201 32.912 28.2547 33.0663 27.2792 33.1122C27.0348 33.1231 26.832 33.1319 26.6265 33.1391L26.4485 33.1449C25.9968 33.1583 25.474 33.1644 24.4424 33.1664L23.7589 33.1671C23.6754 33.1672 23.5892 33.1672 23.5003 33.1672L23.2417 33.1671L22.5581 33.1665C21.5265 33.1648 21.0037 33.1594 20.552 33.1459L20.3741 33.14C20.1685 33.1328 19.9657 33.1236 19.7213 33.1122C18.7458 33.0671 18.0812 32.912 17.4961 32.6859C16.8926 32.4529 16.3816 32.1374 15.8721 31.6286C15.3625 31.1192 15.0486 30.6066 14.8148 30.0047C14.588 29.4203 14.4344 28.7549 14.3886 27.7795C14.3777 27.535 14.3688 27.3322 14.3616 27.1267L14.3559 26.9488C14.3424 26.4971 14.3363 25.9743 14.3343 24.9427L14.3342 23.0584C14.3359 22.0267 14.3414 21.5039 14.3548 21.0522L14.3607 20.8743C14.368 20.6687 14.3771 20.466 14.3886 20.2215C14.4337 19.2453 14.588 18.5807 14.8148 17.9963C15.0478 17.3929 15.3625 16.8818 15.8721 16.3723C16.3816 15.8628 16.8934 15.5488 17.4961 15.3151C18.0805 15.0882 18.745 14.9347 19.7213 14.8888C19.9657 14.8779 20.1685 14.8691 20.3741 14.8619L20.552 14.8561C21.0037 14.8427 21.5265 14.8366 22.5581 14.8346L24.4424 14.8345ZM23.5003 19.4172C20.9676 19.4172 18.9169 21.4701 18.9169 24.0005C18.9169 26.5332 20.9698 28.5838 23.5003 28.5838C26.0329 28.5838 28.0836 26.5309 28.0836 24.0005C28.0836 21.4678 26.0306 19.4172 23.5003 19.4172ZM23.5003 21.2505C25.0191 21.2505 26.2503 22.4812 26.2503 24.0005C26.2503 25.5193 25.0195 26.7505 23.5003 26.7505C21.9814 26.7505 20.7503 25.5197 20.7503 24.0005C20.7503 22.4817 21.981 21.2505 23.5003 21.2505ZM28.3128 18.0422C27.6809 18.0422 27.1669 18.5554 27.1669 19.1872C27.1669 19.819 27.6802 20.3331 28.3128 20.3331C28.9445 20.3331 29.4586 19.8198 29.4586 19.1872C29.4586 18.5554 28.9437 18.0414 28.3128 18.0422Z" fill="black"/>
</svg>
