<svg width="48" height="48" viewBox="0 0 48 48" fill="none" xmlns="http://www.w3.org/2000/svg">
<circle cx="24" cy="24" r="24" fill="#212121"/>
<path d="M22.64 28.9999C22.7747 28.9994 22.9079 28.9717 23.0316 28.9184C23.1554 28.8652 23.2671 28.7874 23.36 28.6899L27.22 24.6899C27.4032 24.503 27.5059 24.2517 27.5059 23.9899C27.5059 23.7282 27.4032 23.4769 27.22 23.2899L23.22 19.2899C23.1268 19.1967 23.0161 19.1227 22.8943 19.0723C22.7724 19.0218 22.6419 18.9958 22.51 18.9958C22.3781 18.9958 22.2476 19.0218 22.1258 19.0723C22.0039 19.1227 21.8932 19.1967 21.8 19.2899C21.7068 19.3832 21.6328 19.4939 21.5823 19.6157C21.5319 19.7375 21.5059 19.8681 21.5059 19.9999C21.5059 20.1318 21.5319 20.2624 21.5823 20.3842C21.6328 20.506 21.7068 20.6167 21.8 20.7099L25.1 23.9999L21.92 27.2999C21.7338 27.4873 21.6292 27.7408 21.6292 28.0049C21.6292 28.2691 21.7338 28.5226 21.92 28.7099C22.0146 28.8038 22.1271 28.8778 22.2507 28.9276C22.3744 28.9775 22.5067 29.002 22.64 28.9999Z" fill="white"/>
</svg>
