<svg width="73" height="73" viewBox="0 0 73 73" fill="none" xmlns="http://www.w3.org/2000/svg">
<circle cx="36.5" cy="36.3042" r="36" fill="white"/>
<path d="M45.25 36.3042C45.2505 36.5164 45.1961 36.7252 45.0921 36.9101C44.988 37.0951 44.8379 37.2499 44.6562 37.3597L33.4 44.2456C33.2102 44.3618 32.9929 44.4253 32.7704 44.4294C32.5479 44.4335 32.3283 44.3782 32.1344 44.2691C31.9423 44.1617 31.7822 44.005 31.6708 43.8153C31.5593 43.6255 31.5003 43.4095 31.5 43.1894V29.4191C31.5003 29.199 31.5593 28.9829 31.6708 28.7932C31.7822 28.6034 31.9423 28.4468 32.1344 28.3394C32.3283 28.2303 32.5479 28.1749 32.7704 28.179C32.9929 28.1832 33.2102 28.2466 33.4 28.3628L44.6562 35.2488C44.8379 35.3585 44.988 35.5134 45.0921 35.6983C45.1961 35.8833 45.2505 36.092 45.25 36.3042Z" fill="#EE1B24"/>
</svg>
