<svg width="120" height="120" viewBox="0 0 120 120" fill="none" xmlns="http://www.w3.org/2000/svg">
<path fill-rule="evenodd" clip-rule="evenodd" d="M47.1333 22.7899C28.3068 34.8805 17.8478 48.953 15.7564 65.0072C12.5005 90 34.851 102.233 46.1758 91.2417C57.5005 80.2502 50.712 66.299 42.5118 62.4855C34.3115 58.6717 29.2968 60 30.1715 54.9037C31.0463 49.8077 42.7128 35.6782 52.9623 29.098C53.6423 28.5197 53.901 27.3977 53.2463 26.5465C52.8155 25.9867 51.9708 24.8889 50.712 23.2528C49.6113 21.8221 48.5568 21.8757 47.1333 22.7899Z" fill="#EE1B24"/>
<path fill-rule="evenodd" clip-rule="evenodd" d="M96.6973 22.7899C77.871 34.8805 67.412 48.953 65.3205 65.0072C62.0648 90 84.4153 102.233 95.74 91.2417C107.065 80.2502 100.276 66.299 92.076 62.4855C83.8757 58.6717 78.8608 60 79.7358 54.9037C80.6105 49.8077 92.277 35.6782 102.527 29.098C103.207 28.5197 103.465 27.3977 102.81 26.5465C102.38 25.9867 101.535 24.8889 100.276 23.2528C99.1755 21.8221 98.121 21.8757 96.6973 22.7899Z" fill="#EE1B24"/>
</svg>
