<svg width="207" height="207" viewBox="0 0 207 207" fill="none" xmlns="http://www.w3.org/2000/svg">
<path d="M103.5 0L106.795 87.7142C106.901 90.5319 110.265 91.9254 112.332 90.0078L176.686 30.3144L116.992 94.6676C115.075 96.7349 116.468 100.099 119.286 100.205L207 103.5L119.286 106.795C116.468 106.901 115.075 110.265 116.992 112.332L176.686 176.686L112.332 116.992C110.265 115.075 106.901 116.468 106.795 119.286L103.5 207L100.205 119.286C100.099 116.468 96.7349 115.075 94.6676 116.992L30.3144 176.686L90.0078 112.332C91.9254 110.265 90.5319 106.901 87.7142 106.795L0 103.5L87.7142 100.205C90.5319 100.099 91.9254 96.7349 90.0078 94.6676L30.3144 30.3144L94.6676 90.0078C96.7349 91.9254 100.099 90.5319 100.205 87.7142L103.5 0Z" fill="#EE1B24"/>
</svg>
